# xmcd
#
# Track frame offsets:
#	150
#	32100
#	73940
#	84692
#	111551
#	143614
#	181836
#	190241
#
# Disc length: 3373 seconds
#
# Revision: 1
# Processed by: cddbd v1.5.2PL0 Copyright (c) Steve Scherf et al.
# Submitted via: audiograbber 1.83.01
#
DISCID=720d2b08
DTITLE=Benedek Elek - mese
DYEAR=1900
DGENRE=
TTITLE0=Mese a három kismalackáról
TTITLE1=Bolond Istók
TTITLE2=Az okos lány
TTITLE3=A só
TTITLE4=A hazug legény
TTITLE5=Béla kisasszony
TTITLE6=A prücsök krajcárkája
TTITLE7=Hammas Gyurka
EXTD=
EXTT0=
EXTT1=
EXTT2=
EXTT3=
EXTT4=
EXTT5=
EXTT6=
EXTT7=
PLAYORDER=
